<svg width="300" height="226" viewBox="0 0 300 226" fill="none" xmlns="http://www.w3.org/2000/svg">
<path d="M226 53.706H224.755V19.6885C224.755 14.4668 222.675 9.45893 218.972 5.76663C215.27 2.07432 210.248 6.58877e-06 205.012 0H132.743C130.15 -6.93253e-06 127.583 0.509244 125.188 1.49868C122.792 2.48811 120.616 3.93834 118.783 5.76658C116.949 7.59482 115.495 9.76525 114.503 12.154C113.511 14.5427 113 17.1029 113 19.6884V206.312C113 208.897 113.511 211.457 114.503 213.846C115.495 216.235 116.949 218.405 118.782 220.233C120.616 222.062 122.792 223.512 125.187 224.501C127.583 225.491 130.15 226 132.743 226H205.012C210.248 226 215.27 223.926 218.972 220.233C222.675 216.541 224.755 211.533 224.755 206.312V77.9203H226L226 53.706Z" fill="#3F3D56"/>
<path d="M205.416 5H196.084C196.514 6.06188 196.677 7.21397 196.561 8.3548C196.445 9.49562 196.053 10.5902 195.42 11.542C194.786 12.4938 193.93 13.2737 192.927 13.813C191.924 14.3523 190.805 14.6344 189.669 14.6345H148.715C147.579 14.6344 146.46 14.3523 145.457 13.813C144.454 13.2738 143.598 12.4938 142.965 11.542C142.331 10.5902 141.939 9.49563 141.823 8.3548C141.707 7.21398 141.871 6.06188 142.3 5H133.584C129.716 5 126.007 6.55082 123.272 9.31131C120.537 12.0718 119 15.8158 119 19.7198V206.28C119 208.213 119.377 210.127 120.11 211.913C120.843 213.699 121.917 215.322 123.272 216.689C124.626 218.056 126.234 219.14 128.003 219.88C129.772 220.619 131.669 221 133.584 221H205.416C207.331 221 209.228 220.619 210.997 219.88C212.766 219.14 214.374 218.056 215.728 216.689C217.083 215.322 218.157 213.699 218.89 211.913C219.623 210.127 220 208.213 220 206.28V19.7198C220 17.7867 219.623 15.8726 218.89 14.0867C218.157 12.3009 217.083 10.6782 215.728 9.31131C214.374 7.94445 212.766 6.8602 210.997 6.12047C209.228 5.38073 207.331 5 205.416 5Z" fill="white"/>
<path d="M184 86C191.18 86 197 85.3284 197 84.5C197 83.6716 191.18 83 184 83C176.82 83 171 83.6716 171 84.5C171 85.3284 176.82 86 184 86Z" fill="#E6E6E6"/>
<path d="M300 31H180V70.634H184.545V81L194.848 70.634H300V31Z" fill="#43B138"/>
<path d="M248 44H193V46H248V44Z" fill="white"/>
<path d="M288 50H193V52H288V50Z" fill="white"/>
<path d="M288 56H193V57H288V56Z" fill="white"/>
<path d="M269 150H173V181.707H176.636V190L184.879 181.707H269V150Z" fill="#43B138"/>
<path d="M228 161H184V162H228V161Z" fill="white"/>
<path d="M260 165H184V166H260V165Z" fill="white"/>
<path d="M260 170H184V171H260V170Z" fill="white"/>
<path d="M177 194C182.523 194 187 193.552 187 193C187 192.448 182.523 192 177 192C171.477 192 167 192.448 167 193C167 193.552 171.477 194 177 194Z" fill="#E6E6E6"/>
<path d="M148 132C155.18 132 161 131.328 161 130.5C161 129.672 155.18 129 148 129C140.82 129 135 129.672 135 130.5C135 131.328 140.82 132 148 132Z" fill="#E6E6E6"/>
<path d="M68 93H153V120.744H149.78V128L142.482 120.744H68V93Z" fill="#43B138"/>
<path d="M116 102H77V103H116V102Z" fill="white"/>
<path d="M144 106H77V107H144V106Z" fill="white"/>
<path d="M144 110H77V111H144V110Z" fill="white"/>
<path d="M27.4297 160.487C27.8528 161.184 28.548 161.692 29.3624 161.898C30.1768 162.105 31.0436 161.994 31.7722 161.589C32.5008 161.184 33.0314 160.519 33.2474 159.739C33.4634 158.96 33.3471 158.131 32.9239 157.434C32.8351 157.291 32.7351 157.155 32.6247 157.027L35.2971 138.801L35.3771 138.255L35.92 134.536L36 134L35.7042 134.013L30.5266 134.24L29.1382 134.3L28.9642 137.693L27.9795 156.768C27.465 157.239 27.131 157.861 27.0313 158.536C26.9316 159.211 27.0719 159.898 27.4297 160.487Z" fill="#A0616A"/>
<path d="M34.9355 137.995L29.052 137.428C28.7468 137.398 28.4654 137.242 28.2692 136.995C28.073 136.748 27.9778 136.429 28.0044 136.109L29.0957 123.267C29.1486 122.643 29.3201 122.037 29.6002 121.484C29.8803 120.931 30.2631 120.443 30.7262 120.048C31.1892 119.653 31.7231 119.36 32.296 119.185C32.869 119.011 33.4695 118.959 34.062 119.032C34.6545 119.106 35.2269 119.303 35.7455 119.613C36.264 119.923 36.718 120.338 37.0808 120.835C37.4435 121.333 37.7075 121.901 37.8573 122.507C38.007 123.113 38.0393 123.745 37.9524 124.364L36.1882 136.96C36.1477 137.249 36.0098 137.513 35.7995 137.704C35.5893 137.894 35.3207 138 35.0428 138C35.0073 138 34.9714 137.998 34.9355 137.995Z" fill="#CCCCCC"/>
<path d="M30.4845 127.312C29.8676 125.509 29.839 123.547 30.4031 121.726C30.9672 119.904 32.0929 118.323 33.6088 117.223C35.9088 115.599 39.0562 115.016 42.4456 119.18C49.2246 127.508 51 136.668 51 136.668L37.1193 139C37.1193 139 32.3984 133.046 30.4845 127.312Z" fill="#CCCCCC"/>
<path d="M53.0006 222H57.066L59 206L53 206L53.0006 222Z" fill="#A0616A"/>
<path d="M65.2749 225.345L52.4465 225.345L52.4463 220.389L61.3163 220.388C61.8361 220.388 62.3508 220.491 62.8311 220.69C63.3114 220.889 63.7477 221.18 64.1153 221.548C64.4829 221.915 64.7745 222.352 64.9735 222.832C65.1724 223.312 65.2748 223.827 65.2749 224.347L65.2749 225.345Z" fill="#2F2E41"/>
<path d="M20 217.737L23.6353 219L30 204.864L24.6347 203L20 217.737Z" fill="#A0616A"/>
<path d="M29.9233 225.345L17.7431 221.32L19.2985 216.613L27.7204 219.397C28.2139 219.56 28.6705 219.819 29.0641 220.159C29.4577 220.498 29.7805 220.912 30.0141 221.376C30.2478 221.841 30.3877 222.347 30.4258 222.865C30.464 223.383 30.3997 223.904 30.2365 224.398L29.9233 225.345Z" fill="#2F2E41"/>
<path d="M43.0756 112.583C47.0383 110.417 48.4947 105.449 46.3285 101.486C44.1622 97.5231 39.1937 96.0667 35.2309 98.2329C31.2681 100.399 29.8118 105.368 31.978 109.33C34.1442 113.293 39.1128 114.75 43.0756 112.583Z" fill="#A0616A"/>
<path d="M46.571 216.73L42.7993 191.787C42.7591 191.521 42.6278 191.277 42.428 191.097C42.2281 190.917 41.9721 190.813 41.7036 190.801C41.4351 190.789 41.1709 190.871 40.9562 191.033C40.7414 191.195 40.5894 191.426 40.5262 191.688L34.7827 215.458C34.6922 215.822 34.4691 216.14 34.1573 216.347C33.8455 216.555 33.4674 216.639 33.0972 216.582L17.2543 214.03C17.0443 213.997 16.8438 213.918 16.6666 213.8C16.4893 213.682 16.3392 213.528 16.2265 213.347C16.1137 213.166 16.0409 212.963 16.013 212.752C15.985 212.541 16.0025 212.326 16.0642 212.122L36.7224 143.878C36.7811 143.684 36.7881 143.478 36.7426 143.28L36.0548 140.294C35.9792 139.97 36.0141 139.63 36.1538 139.329C36.2935 139.027 36.5299 138.781 36.8255 138.63C39.6385 137.191 46.7619 134.201 52.1404 137.477C52.315 137.583 52.4661 137.724 52.5845 137.891C52.7029 138.058 52.7862 138.248 52.8292 138.448L68.9674 214.449C69.0112 214.656 69.0109 214.869 68.9663 215.076C68.9217 215.282 68.8339 215.477 68.7086 215.647C68.5834 215.817 68.4236 215.958 68.2398 216.062C68.056 216.165 67.8523 216.229 67.6423 216.248L48.1779 217.994C48.133 217.998 48.0885 218 48.0443 218C47.6879 217.999 47.3436 217.871 47.0734 217.638C46.8032 217.405 46.625 217.083 46.571 216.73Z" fill="#2F2E41"/>
<path d="M33.862 99.6442C34.4988 99.2568 35.0639 98.7601 35.532 98.1763C35.7628 97.8813 35.9147 97.5313 35.9731 97.1598C36.0315 96.7884 35.9944 96.4079 35.8655 96.0551C35.4387 95.1028 34.1703 94.8011 33.1877 95.1258C32.205 95.4505 31.4457 96.2292 30.7275 96.9813C30.0949 97.6437 29.4442 98.3351 29.1441 99.2047C28.844 100.074 28.9981 101.177 29.7445 101.704C30.477 102.222 31.5302 102.01 32.2347 101.454C32.9393 100.898 33.3754 100.073 33.7912 99.2728L33.862 99.6442Z" fill="#2F2E41"/>
<path d="M31 97.5707C30.9556 95.2917 28.3858 93.6576 26.1665 94.0614C23.9472 94.4653 22.2413 96.3781 21.3874 98.4878C19.5832 102.945 20.9376 108.031 22.676 112.515C24.4144 116.999 26.5657 121.551 26.3121 126.36C26.1407 128.96 25.2779 131.465 23.8148 133.61C22.3518 135.755 20.3427 137.46 18 138.547C20.5047 139.694 23.4985 138.509 25.6033 136.72C30.2775 132.746 32.0818 125.672 29.8908 119.91C28.8101 117.068 26.9057 114.636 25.4189 111.988C23.9321 109.34 22.8412 106.219 23.6088 103.275C24.3764 100.33 27.6432 97.9453 30.4362 99.086L31 97.5707Z" fill="#2F2E41"/>
<path d="M39.8594 108.686C39.1415 107.494 38.4166 105.93 39.7293 104.889C40.0147 104.673 40.3412 104.515 40.6896 104.425C41.0381 104.334 41.4014 104.313 41.7583 104.362C43.238 104.538 44.8492 104.61 46.2813 104.082C46.8184 103.9 47.3129 103.615 47.7355 103.242C48.158 102.869 48.4999 102.417 48.741 101.912C49.4803 100.192 48.5545 98.1018 47.0088 97.0145C46.0632 96.3734 44.9459 96.0208 43.797 96.0009C42.6481 95.9809 41.5188 96.2945 40.5507 96.9023C38.5488 96.0342 36.1197 96.4202 34.301 97.6153C32.4822 98.8105 31.2377 100.724 30.5616 102.768C29.9388 104.527 29.8316 106.423 30.2521 108.239C30.5905 109.502 31.2341 110.667 32.1282 111.634C33.0223 112.601 34.1406 113.343 35.3886 113.796C35.8747 113.984 36.4027 114.044 36.9196 113.968C37.4365 113.893 37.9241 113.686 38.3337 113.367C38.3337 113.367 39.4689 112.394 39.8241 111.222C40.097 110.322 40.243 109.322 39.8594 108.686Z" fill="#2F2E41"/>
<path d="M63.9721 116.7C63.9304 116.88 63.9033 117.062 63.8909 117.246L49.3182 125.506L45.7761 123.503L42 128.36L47.9198 132.505C48.398 132.84 48.9739 133.013 49.561 132.999C50.1481 132.985 50.7148 132.784 51.1758 132.427L66.2028 120.78C66.881 121.026 67.6195 121.064 68.3201 120.888C69.0208 120.713 69.6504 120.331 70.1251 119.796C70.5999 119.26 70.8973 118.594 70.9778 117.888C71.0584 117.182 70.9182 116.469 70.576 115.843C70.2338 115.217 69.7058 114.708 69.0622 114.385C68.4185 114.061 67.6898 113.937 66.9729 114.03C66.2559 114.123 65.5848 114.428 65.0488 114.905C64.5128 115.382 64.1372 116.008 63.9721 116.7Z" fill="#A0616A"/>
<path d="M48.6887 125.591L44.0773 131.432C43.9461 131.598 43.7798 131.734 43.5897 131.832C43.3996 131.93 43.1902 131.986 42.9757 131.998C42.7613 132.009 42.5468 131.975 42.3469 131.899C42.1471 131.822 41.9665 131.704 41.8175 131.553L36.5971 126.255C35.7307 125.594 35.1678 124.624 35.0319 123.558C34.896 122.493 35.1981 121.418 35.872 120.569C36.5459 119.721 37.5366 119.168 38.6268 119.032C39.717 118.897 40.8178 119.189 41.6877 119.846L48.2352 123.424C48.4227 123.526 48.5853 123.667 48.712 123.836C48.8388 124.006 48.9267 124.2 48.9697 124.406C49.0127 124.611 49.0099 124.824 48.9614 125.028C48.9129 125.233 48.8199 125.425 48.6887 125.591Z" fill="#CCCCCC"/>
<path d="M95.6129 226H0.387098C0.284433 226 0.185973 225.947 0.113378 225.854C0.0407833 225.76 0 225.633 0 225.5C0 225.367 0.0407833 225.24 0.113378 225.146C0.185973 225.053 0.284433 225 0.387098 225H95.6129C95.7156 225 95.814 225.053 95.8866 225.146C95.9592 225.24 96 225.367 96 225.5C96 225.633 95.9592 225.76 95.8866 225.854C95.814 225.947 95.7156 226 95.6129 226Z" fill="#CCCCCC"/>
</svg>
