<svg width="350" height="230" viewBox="0 0 350 230" fill="none" xmlns="http://www.w3.org/2000/svg">
<g clip-path="url(#clip0_9_326)">
<path d="M50.1518 229.182C77.8499 229.182 100.304 227.469 100.304 225.357C100.304 223.244 77.8499 221.532 50.1518 221.532C22.4537 221.532 0 223.244 0 225.357C0 227.469 22.4537 229.182 50.1518 229.182Z" fill="#E6E6E6"/>
<path d="M66.3951 57.5729L46.3872 52.1162C51.7299 47.0746 54.054 42.3253 53.3597 37.8681H66.3951V57.5729Z" fill="#9F616A"/>
<path d="M68.5171 210.967L62.0543 211.876L54.2689 140.333L41.8397 211.573L35.1704 211.876V121.538H76.399L68.5171 210.967Z" fill="#2F2E41"/>
<path d="M38.5269 225.389C39.5413 225.418 40.5363 225.107 41.3533 224.505C42.1703 223.903 42.7623 223.045 43.0351 222.068L43.5071 215.023L42.5555 210.027C40.0447 207.964 37.5064 208.007 34.9424 210.027L34.1249 220.492C34.0769 221.106 34.1542 221.723 34.3521 222.306C34.5499 222.889 34.8642 223.426 35.2759 223.884C35.6876 224.342 36.188 224.712 36.7469 224.971C37.3057 225.229 37.9113 225.372 38.5269 225.389Z" fill="#2F2E41"/>
<path d="M65.2042 225.389C66.2186 225.418 67.2135 225.107 68.0305 224.505C68.8475 223.903 69.4395 223.045 69.7123 222.068L70.1844 215.023L69.2328 210.027C66.722 207.964 64.1837 208.007 61.6197 210.027L60.8021 220.492C60.7542 221.106 60.8315 221.723 61.0293 222.306C61.2272 222.889 61.5415 223.426 61.9532 223.884C62.3648 224.342 62.8653 224.712 63.4241 224.971C63.983 225.229 64.5886 225.372 65.2042 225.389Z" fill="#2F2E41"/>
<path d="M63.6667 47.2658C70.0289 47.2658 75.1864 42.1082 75.1864 35.746C75.1864 29.3839 70.0289 24.2263 63.6667 24.2263C57.3045 24.2263 52.147 29.3839 52.147 35.746C52.147 42.1082 57.3045 47.2658 63.6667 47.2658Z" fill="#9F616A"/>
<path d="M78.2178 123.053H34.261C39.9583 96.6497 39.9423 75.3845 35.4041 58.1865C35.1151 57.0916 35.2405 55.9285 35.7562 54.9203C36.272 53.9122 37.1418 53.1299 38.1989 52.7237L50.0248 48.1752C53.5752 52.7603 58.5854 54.763 66.395 51.813L72.592 53.0842C74.101 53.3919 75.4473 54.2359 76.3817 55.4601C77.3161 56.6843 77.7752 58.2056 77.6739 59.7423C77.2178 66.4684 77.3977 73.246 77.0052 79.0966C75.7901 97.2143 75.2653 111.338 78.2178 123.053Z" fill="#E6E6E6"/>
<path d="M57.6036 20.5885C57.6036 20.5885 64.273 13.0098 72.1549 20.2854L74.2769 20.8917L72.7612 22.1043C72.7612 22.1043 80.6431 25.7421 80.0368 33.3209C80.0368 33.3209 78.8242 33.0177 78.2179 33.3209C77.6116 33.624 77.3085 36.9587 77.3085 36.9587C77.3085 36.9587 76.399 34.5335 76.0958 34.2303C75.7927 33.9272 71.5486 37.565 64.5761 32.1083C64.5761 32.1083 62.4541 37.565 60.0289 36.9587C57.6037 36.3524 54.269 36.6555 52.7533 40.5965C52.7533 40.5965 44.5682 23.0137 57.6036 20.5885Z" fill="#2F2E41"/>
<path d="M80.34 116.384L76.4485 121.6C76.0432 122.143 75.75 122.762 75.5859 123.419C75.4218 124.077 75.3901 124.761 75.4928 125.43C75.5954 126.1 75.8302 126.743 76.1835 127.322C76.5369 127.9 77.0018 128.402 77.5511 128.799C78.2585 129.311 79.0851 129.632 79.952 129.734C80.819 129.835 81.6974 129.713 82.5037 129.378C83.3099 129.044 84.0171 128.509 84.5579 127.824C85.0987 127.138 85.455 126.326 85.5929 125.464L86.7062 118.506L88.8282 88.4943L87.3125 73.3367L77.6117 76.9745L80.34 90.01V116.384Z" fill="#9F616A"/>
<path d="M76.399 80.6123L88.2219 75.1556L87.6156 70.8605C87.6156 67.3045 86.5405 63.8316 84.5313 60.8976C82.5221 57.9636 79.6728 55.7056 76.3573 54.42L72.7612 53.0256L76.399 80.6123Z" fill="#E6E6E6"/>
<path d="M33.3515 115.172L37.243 120.387C37.6483 120.931 37.9416 121.549 38.1056 122.207C38.2697 122.864 38.3014 123.548 38.1988 124.218C38.0962 124.888 37.8614 125.531 37.508 126.109C37.1546 126.687 36.6897 127.19 36.1404 127.587C35.433 128.098 34.6065 128.42 33.7395 128.521C32.8726 128.622 31.9941 128.5 31.1878 128.166C30.3816 127.831 29.6744 127.296 29.1336 126.611C28.5929 125.926 28.2365 125.114 28.0986 124.252L26.9853 117.294L24.8633 87.2817L26.379 72.1241L36.0799 75.762L33.3515 88.7974V115.172Z" fill="#9F616A"/>
<path d="M37.2926 79.3998L25.4697 73.943L26.076 69.6479C26.076 66.0919 27.1512 62.619 29.1603 59.685C31.1695 56.751 34.0188 54.4931 37.3343 53.2075L40.9304 51.813L37.2926 79.3998Z" fill="#E6E6E6"/>
<path d="M346.812 195.393H144.505C143.66 195.392 142.85 195.056 142.252 194.459C141.655 193.861 141.319 193.051 141.318 192.206V104.228C141.319 103.382 141.655 102.572 142.252 101.975C142.85 101.377 143.66 101.041 144.505 101.04H346.812C347.658 101.041 348.468 101.377 349.065 101.975C349.663 102.572 349.999 103.382 350 104.228V192.206C349.999 193.051 349.663 193.861 349.065 194.459C348.468 195.056 347.658 195.392 346.812 195.393ZM144.505 102.315C143.998 102.316 143.512 102.517 143.153 102.876C142.795 103.234 142.593 103.72 142.593 104.228V192.206C142.593 192.713 142.795 193.199 143.153 193.557C143.512 193.916 143.998 194.118 144.505 194.118H346.812C347.32 194.118 347.806 193.916 348.164 193.557C348.523 193.199 348.724 192.713 348.725 192.206V104.228C348.724 103.72 348.523 103.234 348.164 102.876C347.806 102.517 347.32 102.316 346.812 102.315H144.505Z" fill="#E6E6E6"/>
<path d="M152.793 111.878C152.286 111.878 151.799 112.079 151.441 112.438C151.082 112.797 150.88 113.283 150.88 113.79C150.88 114.298 151.082 114.784 151.441 115.143C151.799 115.501 152.286 115.703 152.793 115.703H179.569C180.076 115.703 180.563 115.501 180.921 115.143C181.28 114.784 181.481 114.298 181.481 113.79C181.481 113.283 181.28 112.797 180.921 112.438C180.563 112.079 180.076 111.878 179.569 111.878H152.793Z" fill="#E6E6E6"/>
<path d="M336.098 125.179V160.646H155.538V141.972C156.789 141.169 158.047 140.37 159.316 139.597C164.736 136.28 170.538 133.178 176.862 132.028C179.852 131.47 182.916 131.432 185.92 131.915C189.093 132.439 192.13 133.532 195.137 134.629C198.102 135.715 201.075 136.834 204.176 137.464C207.198 138.057 210.301 138.118 213.344 137.645C219.15 136.774 224.604 134.44 230.036 132.33C235.502 130.207 241.134 128.202 247.05 127.938C252.889 127.674 258.657 129.054 264.199 130.765C275.497 134.252 287.033 139.424 298.996 135.877C311.144 132.281 322.318 121.899 335.781 124.979C335.908 125.003 336.022 125.074 336.098 125.179Z" fill="#E6E6E6"/>
<path d="M336.098 125.797C336.04 125.905 335.948 125.991 335.836 126.04C335.724 126.089 335.598 126.099 335.48 126.068C333.876 125.701 332.232 125.531 330.587 125.563C317.345 125.797 307.163 136.457 294.215 138.052C282.541 139.488 271.553 133.811 260.576 130.844C254.873 129.303 248.992 128.485 243.123 129.533C237.299 130.569 231.833 132.951 226.345 135.066C221.06 137.102 215.568 138.994 209.846 139.088C203.554 139.194 197.889 136.6 192.054 134.625C189.019 133.596 185.906 132.782 182.69 132.703C179.556 132.665 176.438 133.148 173.462 134.131C167.262 136.103 161.675 139.616 156.236 143.107C156.143 143.172 156.029 143.203 155.915 143.193C155.798 143.178 155.688 143.127 155.6 143.047C155.513 142.967 155.451 142.863 155.424 142.748C155.397 142.632 155.406 142.511 155.449 142.401C155.493 142.291 155.568 142.196 155.667 142.13L155.915 141.972C157.163 141.169 158.418 140.37 159.685 139.597C165.094 136.28 170.884 133.178 177.194 132.028C180.178 131.47 183.236 131.432 186.234 131.915C189.4 132.439 192.431 133.532 195.431 134.629C198.39 135.715 201.357 136.834 204.452 137.464C207.467 138.057 210.563 138.118 213.6 137.645C219.394 136.774 224.837 134.44 230.258 132.33C235.712 130.207 241.333 128.202 247.236 127.938C253.063 127.674 258.819 129.054 264.349 130.765C275.624 134.252 287.136 139.424 299.074 135.877C311.197 132.281 322.347 121.899 335.781 124.979C335.909 125.003 336.022 125.074 336.098 125.179C336.156 125.271 336.187 125.378 336.187 125.488C336.187 125.597 336.156 125.704 336.098 125.797Z" fill="#43B138"/>
<path d="M180.417 135.013C181.875 135.013 183.056 133.832 183.056 132.375C183.056 130.917 181.875 129.736 180.417 129.736C178.96 129.736 177.779 130.917 177.779 132.375C177.779 133.832 178.96 135.013 180.417 135.013Z" fill="#43B138"/>
<path d="M247.137 131.621C248.595 131.621 249.776 130.44 249.776 128.982C249.776 127.525 248.595 126.344 247.137 126.344C245.68 126.344 244.499 127.525 244.499 128.982C244.499 130.44 245.68 131.621 247.137 131.621Z" fill="#43B138"/>
<path d="M328.559 128.228C330.016 128.228 331.197 127.047 331.197 125.59C331.197 124.132 330.016 122.951 328.559 122.951C327.102 122.951 325.92 124.132 325.92 125.59C325.92 127.047 327.102 128.228 328.559 128.228Z" fill="#43B138"/>
<path d="M178.931 175.63C178.424 175.63 177.938 175.832 177.579 176.19C177.22 176.549 177.019 177.035 177.019 177.543C177.019 178.05 177.22 178.536 177.579 178.895C177.938 179.254 178.424 179.455 178.931 179.455H205.707C206.215 179.455 206.701 179.254 207.06 178.895C207.418 178.536 207.62 178.05 207.62 177.543C207.62 177.035 207.418 176.549 207.06 176.19C206.701 175.832 206.215 175.63 205.707 175.63H178.931Z" fill="#E6E6E6"/>
<path d="M161.718 184.555C165.709 184.555 168.943 181.321 168.943 177.33C168.943 173.34 165.709 170.105 161.718 170.105C157.728 170.105 154.493 173.34 154.493 177.33C154.493 181.321 157.728 184.555 161.718 184.555Z" fill="#43B138"/>
<path d="M243.534 175.63C243.026 175.63 242.54 175.832 242.181 176.19C241.823 176.549 241.621 177.035 241.621 177.543C241.621 178.05 241.823 178.536 242.181 178.895C242.54 179.254 243.026 179.455 243.534 179.455H270.31C270.817 179.455 271.303 179.254 271.662 178.895C272.021 178.536 272.222 178.05 272.222 177.543C272.222 177.035 272.021 176.549 271.662 176.19C271.303 175.832 270.817 175.63 270.31 175.63H243.534Z" fill="#E6E6E6"/>
<path d="M226.32 184.555C230.311 184.555 233.546 181.321 233.546 177.33C233.546 173.34 230.311 170.105 226.32 170.105C222.33 170.105 219.095 173.34 219.095 177.33C219.095 181.321 222.33 184.555 226.32 184.555Z" fill="#43B138"/>
<path d="M308.136 175.63C307.629 175.63 307.142 175.832 306.784 176.19C306.425 176.549 306.223 177.035 306.223 177.543C306.223 178.05 306.425 178.536 306.784 178.895C307.142 179.254 307.629 179.455 308.136 179.455H334.912C335.419 179.455 335.906 179.254 336.264 178.895C336.623 178.536 336.824 178.05 336.824 177.543C336.824 177.035 336.623 176.549 336.264 176.19C335.906 175.832 335.419 175.63 334.912 175.63H308.136Z" fill="#E6E6E6"/>
<path d="M290.923 184.555C294.913 184.555 298.148 181.321 298.148 177.33C298.148 173.34 294.913 170.105 290.923 170.105C286.933 170.105 283.698 173.34 283.698 177.33C283.698 181.321 286.933 184.555 290.923 184.555Z" fill="#43B138"/>
<path d="M332.965 77.2856H233.155C231.21 77.2856 229.633 76.1623 229.631 74.778V53.0844C229.633 51.7001 231.21 50.5768 233.155 50.5768H332.965C334.911 50.5768 336.487 51.7001 336.49 53.0844V74.7776C336.488 76.1619 334.911 77.2839 332.965 77.2856ZM233.155 51.579C231.988 51.579 231.042 52.253 231.04 53.0835V74.7767C231.04 75.6072 231.988 76.2804 233.155 76.2813H332.965C334.132 76.2813 335.079 75.6072 335.08 74.7767V53.0844C335.08 52.2539 334.132 51.5807 332.965 51.5798L233.155 51.579Z" fill="#E6E6E6"/>
<path d="M255.723 62.9053C255.159 62.9059 254.619 63.13 254.221 63.5284C253.822 63.9268 253.598 64.4669 253.598 65.0303V79.9059C253.598 80.4693 253.822 81.0094 254.221 81.4078C254.619 81.8062 255.159 82.0303 255.723 82.031H331.8C332.364 82.0303 332.904 81.8062 333.302 81.4078C333.701 81.0094 333.925 80.4693 333.926 79.9059V65.0303C333.925 64.4669 333.701 63.9268 333.302 63.5284C332.904 63.13 332.364 62.9059 331.8 62.9053H255.723Z" fill="#43B138"/>
<path d="M266.348 77.3558C268.93 77.3558 271.023 75.2627 271.023 72.6807C271.023 70.0986 268.93 68.0055 266.348 68.0055C263.766 68.0055 261.673 70.0986 261.673 72.6807C261.673 75.2627 263.766 77.3558 266.348 77.3558Z" fill="white"/>
<path d="M287.655 70.6514C287.148 70.6514 286.661 70.8529 286.303 71.2115C285.944 71.5702 285.742 72.0567 285.742 72.5639C285.742 73.0712 285.944 73.5576 286.303 73.9163C286.661 74.275 287.148 74.4765 287.655 74.4765H314.431C314.938 74.4765 315.425 74.275 315.783 73.9163C316.142 73.5576 316.344 73.0712 316.344 72.5639C316.344 72.0567 316.142 71.5702 315.783 71.2115C315.425 70.8529 314.938 70.6514 314.431 70.6514H287.655Z" fill="white"/>
<path d="M258.162 26.7088H158.353C156.407 26.7088 154.83 25.5855 154.828 24.2012V2.50759C154.83 1.12332 156.407 0 158.353 0H258.162C260.108 0 261.685 1.12332 261.687 2.50759V24.2008C261.685 25.5851 260.108 26.7071 258.162 26.7088ZM158.353 1.00219C157.185 1.00219 156.239 1.67626 156.238 2.50674V24.1999C156.238 25.0304 157.185 25.7036 158.353 25.7045H258.162C259.33 25.7045 260.276 25.0304 260.277 24.1999V2.50759C260.277 1.67711 259.33 1.00389 258.162 1.00304L158.353 1.00219Z" fill="#E6E6E6"/>
<path d="M180.92 12.3285C180.357 12.3292 179.816 12.5533 179.418 12.9516C179.02 13.35 178.796 13.8902 178.795 14.4536V29.3291C178.796 29.8925 179.02 30.4326 179.418 30.831C179.816 31.2294 180.357 31.4535 180.92 31.4542H256.998C257.561 31.4535 258.101 31.2294 258.5 30.831C258.898 30.4326 259.122 29.8925 259.123 29.3291V14.4536C259.122 13.8902 258.898 13.35 258.5 12.9516C258.101 12.5533 257.561 12.3292 256.998 12.3285H180.92Z" fill="#43B138"/>
<path d="M191.546 26.779C194.128 26.779 196.221 24.6858 196.221 22.1038C196.221 19.5218 194.128 17.4286 191.546 17.4286C188.964 17.4286 186.87 19.5218 186.87 22.1038C186.87 24.6858 188.964 26.779 191.546 26.779Z" fill="white"/>
<path d="M212.852 20.0746C212.345 20.0746 211.859 20.2761 211.5 20.6348C211.141 20.9934 210.94 21.4799 210.94 21.9872C210.94 22.4944 211.141 22.9809 211.5 23.3395C211.859 23.6982 212.345 23.8997 212.852 23.8997H239.628C240.135 23.8997 240.622 23.6982 240.981 23.3395C241.339 22.9809 241.541 22.4944 241.541 21.9872C241.541 21.4799 241.339 20.9934 240.981 20.6348C240.622 20.2761 240.135 20.0746 239.628 20.0746H212.852Z" fill="white"/>
</g>
<defs>
<clipPath id="clip0_9_326">
<rect width="350" height="229.182" fill="white"/>
</clipPath>
</defs>
</svg>
