<svg width="459" height="834" viewBox="0 0 459 834" fill="none" xmlns="http://www.w3.org/2000/svg">
<path d="M130.725 -79.0775C191.766 -70.4605 250.223 -54.8987 303.675 -15.4492C363.703 28.8534 434.187 73.693 454.388 159.795C474.558 245.769 423.146 328.195 404.615 414.797C384.737 507.698 390.531 612.276 342.008 684.996C286.985 767.455 208.698 838.081 125.016 833.816C41.9043 829.58 -19.8003 737.72 -80.5082 663.461C-134.459 597.467 -190.971 526.474 -203.94 431.43C-216.232 341.343 -170.472 260.405 -147.288 174.054C-124.561 89.4068 -126.143 -16.8746 -69.8026 -68.1724C-13.5446 -119.396 62.5435 -88.7026 130.725 -79.0775Z" fill="#43B138" fill-opacity="0.15"/>
</svg>
