<svg width="300" height="226" viewBox="0 0 300 226" fill="none" xmlns="http://www.w3.org/2000/svg">
<g clip-path="url(#clip0_9_261)">
<path d="M9.50795 173.454C10.9947 155.823 19.9806 138.224 34.2783 132.068C28.995 150.329 29.4415 170.172 35.5389 188.087C37.912 194.986 41.1697 202.373 39.2421 209.457C38.0428 213.865 34.9441 217.303 31.4434 219.501C27.9424 221.698 24.0274 222.814 20.1613 223.907L19.4125 224.666C12.8769 208.661 8.0212 191.085 9.50795 173.454Z" fill="#F0F0F0"/>
<path d="M34.4289 132.396C26.3562 143.466 21.2753 157.604 20.3869 172.098C20.1949 175.231 20.2348 178.429 20.892 181.492C21.5524 184.472 22.8875 187.192 24.7587 189.37C26.4684 191.441 28.4236 193.33 29.6701 195.848C30.9839 198.502 31.1007 201.559 30.3068 204.444C29.3354 207.975 27.33 210.889 25.2837 213.66C23.0117 216.736 20.6098 219.89 19.7047 223.905C19.5951 224.391 18.9518 224.165 19.0613 223.679C20.6359 216.694 26.34 212.581 28.9623 206.253C30.1859 203.301 30.651 199.902 29.3736 196.863C28.2565 194.205 26.2418 192.256 24.4951 190.176C22.6611 187.992 21.2383 185.579 20.4673 182.637C19.6785 179.628 19.5309 176.425 19.6532 173.3C19.9759 166.215 21.2555 159.233 23.4451 152.609C25.9079 145.034 29.468 138.005 33.9712 131.824C34.2501 131.442 34.7059 132.016 34.4289 132.396Z" fill="white"/>
<path d="M20.4616 167.369C18.3726 166.846 16.5114 165.478 15.2106 163.508C13.9098 161.538 13.254 159.096 13.3603 156.616C13.3654 156.515 13.4041 156.42 13.4682 156.351C13.5324 156.283 13.6169 156.246 13.704 156.248C13.7912 156.251 13.8741 156.292 13.9353 156.364C13.9966 156.436 14.0313 156.533 14.0323 156.635C13.9296 158.943 14.5407 161.219 15.7553 163.05C16.9698 164.881 18.7079 166.148 20.6556 166.621C21.0788 166.725 20.8824 167.472 20.4616 167.369Z" fill="white"/>
<path d="M23.7729 188.452C27.4639 185.738 30.1387 181.507 31.2638 176.603C31.375 176.117 32.0183 176.343 31.9073 176.828C30.7282 181.929 27.937 186.325 24.0907 189.14C23.7239 189.408 23.4081 188.719 23.7729 188.452Z" fill="white"/>
<path d="M26.5479 145.755C27.3199 146.153 28.165 146.322 29.0071 146.246C29.8492 146.171 30.662 145.854 31.3726 145.324C31.7362 145.05 32.0517 145.74 31.6904 146.012C30.903 146.593 30.0049 146.942 29.0747 147.028C28.1444 147.113 27.2103 146.933 26.3539 146.502C26.2702 146.47 26.2005 146.401 26.1587 146.311C26.117 146.22 26.1064 146.115 26.1292 146.016C26.1553 145.917 26.2139 145.834 26.2923 145.785C26.3707 145.736 26.4626 145.726 26.5479 145.755Z" fill="white"/>
<path d="M78.9553 162.125C78.7324 162.303 78.5095 162.481 78.2865 162.666C75.3004 165.079 72.488 167.77 69.8771 170.712C69.6721 170.936 69.4673 171.166 69.2683 171.397C63.0429 178.563 58.0169 187.01 54.4457 196.308C53.0275 200.009 51.8538 203.831 50.9347 207.739C49.6657 213.137 48.6593 219.106 46.0076 223.57C45.7355 224.04 45.4386 224.489 45.1186 224.915L20.2671 225.668C20.2099 225.637 20.1526 225.612 20.0951 225.581L19.104 225.664C19.1393 225.459 19.1797 225.246 19.215 225.041C19.235 224.922 19.2606 224.802 19.2806 224.683C19.2957 224.603 19.3111 224.524 19.3209 224.451C19.3258 224.425 19.331 224.398 19.3361 224.378C19.3458 224.305 19.3615 224.239 19.3714 224.173C19.5944 222.986 19.8249 221.799 20.0631 220.612C20.0629 220.605 20.0629 220.605 20.0683 220.599C21.9025 211.558 24.4024 202.617 27.9911 194.4C28.0991 194.153 28.2067 193.899 28.3261 193.651C29.9614 189.958 31.8538 186.426 33.9843 183.091C35.156 181.27 36.4063 179.518 37.7304 177.843C41.159 173.523 45.151 169.856 49.5603 166.977C58.3509 161.24 68.6231 158.832 78.2237 161.884C78.4693 161.962 78.7096 162.04 78.9553 162.125Z" fill="#F0F0F0"/>
<path d="M78.9076 162.493C66.7254 165.685 55.3419 173.42 47.1216 184.371C45.3444 186.738 43.7189 189.32 42.6564 192.225C41.6394 195.066 41.2959 198.172 41.6614 201.22C41.9531 204.069 42.5356 206.945 42.226 209.827C41.8997 212.865 40.4086 215.388 38.2794 217.136C35.6743 219.276 32.5628 220.2 29.4931 220.981C26.0847 221.848 22.5326 222.686 19.7295 225.259C19.3898 225.57 18.9934 224.94 19.3325 224.628C24.2095 220.153 30.8955 220.858 36.2684 217.64C38.7755 216.139 40.9083 213.75 41.4632 210.43C41.9485 207.527 41.35 204.561 41.0332 201.679C40.7005 198.652 40.8154 195.73 41.724 192.842C42.6535 189.888 44.1956 187.227 45.9129 184.817C49.8422 179.386 54.4821 174.706 59.6626 170.95C65.5547 166.624 72.0402 163.501 78.8386 161.716C79.2594 161.606 79.3257 162.384 78.9076 162.493Z" fill="white"/>
<path d="M49.6319 180.647C48.2348 178.769 47.4579 176.374 47.44 173.892C47.4221 171.409 48.1644 169 49.5343 167.094C49.8126 166.71 50.3399 167.194 50.0612 167.579C48.7828 169.351 48.0915 171.595 48.1122 173.907C48.133 176.219 48.8643 178.446 50.1742 180.186C50.4585 180.565 49.9146 181.024 49.6319 180.647Z" fill="white"/>
<path d="M41.3497 199.797C45.7035 200.212 50.0318 198.705 53.4715 195.576C53.812 195.266 54.2086 195.896 53.8684 196.206C50.2837 199.454 45.7767 201.012 41.2469 200.569C40.8152 200.526 40.9203 199.755 41.3497 199.797Z" fill="white"/>
<path d="M65.692 167.647C66.1023 168.505 66.6894 169.23 67.4008 169.759C68.1122 170.288 68.9255 170.604 69.7677 170.677C70.1997 170.713 70.0941 171.485 69.665 171.449C68.7348 171.363 67.8369 171.013 67.0498 170.431C66.2627 169.848 65.6104 169.051 65.1497 168.108C65.0999 168.023 65.0797 167.92 65.0932 167.818C65.1067 167.717 65.1529 167.626 65.2224 167.562C65.2945 167.502 65.3842 167.477 65.4722 167.492C65.5601 167.508 65.6391 167.564 65.692 167.647Z" fill="white"/>
<path d="M224.812 15.4691C224.44 14.1962 219.787 9.86928 222.639 9.14202L224.977 12.7642L235.727 0.274986L236.808 1.53111L224.812 15.4691Z" fill="#43B138"/>
<path d="M224.812 57.9377C224.44 56.6648 219.787 52.3379 222.639 51.6107L224.977 55.2329L235.727 42.7436L236.808 43.9997L224.812 57.9377Z" fill="#43B138"/>
<path d="M224.812 101.013C224.44 99.7401 219.787 95.4132 222.639 94.686L224.977 98.3082L235.727 85.8189L236.808 87.0751L224.812 101.013Z" fill="#43B138"/>
<path d="M214.912 66.1877C216.745 66.1877 218.23 64.4622 218.23 62.3337C218.23 60.2052 216.745 58.4797 214.912 58.4797C213.08 58.4797 211.595 60.2052 211.595 62.3337C211.595 64.4622 213.08 66.1877 214.912 66.1877Z" fill="#3F3D56"/>
<path d="M214.912 24.1792C216.745 24.1792 218.23 22.4538 218.23 20.3253C218.23 18.1968 216.745 16.4713 214.912 16.4713C213.08 16.4713 211.595 18.1968 211.595 20.3253C211.595 22.4538 213.08 24.1792 214.912 24.1792Z" fill="#3F3D56"/>
<path d="M300 11.4611H246.592V12.2319H300V11.4611Z" fill="#3F3D56"/>
<path d="M216.571 110.969C218.403 110.969 219.888 109.243 219.888 107.115C219.888 104.986 218.403 103.261 216.571 103.261C214.739 103.261 213.254 104.986 213.254 107.115C213.254 109.243 214.739 110.969 216.571 110.969Z" fill="#3F3D56"/>
<path d="M300 53.9296H246.592V54.7004H300V53.9296Z" fill="#3F3D56"/>
<path d="M300 97.0049H246.592V97.7757H300V97.0049Z" fill="#3F3D56"/>
<path d="M233.19 106.755H216.604V87.1001H227.882V87.8709H217.267V105.985H232.527V97.1205H233.19V106.755Z" fill="#3F3D56"/>
<path d="M233.19 63.5908H216.604V43.9355H227.882V44.7063H217.267V62.82H232.527V53.9558H233.19V63.5908Z" fill="#3F3D56"/>
<path d="M233.19 19.6553H216.604V0H227.882V0.770797H217.267V18.8845H232.527V10.0204H233.19V19.6553Z" fill="#3F3D56"/>
<path d="M124.896 70.0546C124.896 70.0546 120.463 91.7992 125.881 91.7992C131.299 91.7992 144.105 67.1934 144.105 67.1934L139.672 60.8989L131.716 73.7327L131.299 67.1934L124.896 70.0546Z" fill="#A0616A"/>
<path d="M142.924 68.1387C145.306 68.1387 147.236 65.8956 147.236 63.1285C147.236 60.3615 145.306 58.1184 142.924 58.1184C140.542 58.1184 138.612 60.3615 138.612 63.1285C138.612 65.8956 140.542 68.1387 142.924 68.1387Z" fill="#A0616A"/>
<path d="M121.138 218.154L126.878 218.154L129.609 192.43L121.137 192.43L121.138 218.154Z" fill="#A0616A"/>
<path d="M120.936 225.111L138.588 225.11V224.851C138.588 222.734 137.864 220.704 136.575 219.207C135.287 217.71 133.539 216.869 131.717 216.869H131.717L128.492 214.027L122.476 216.869L120.935 216.869L120.936 225.111Z" fill="#2F2E41"/>
<path d="M59.3916 209.834L64.5277 212.811L76.8586 191.212L69.278 186.817L59.3916 209.834Z" fill="#A0616A"/>
<path d="M56.5364 215.954L72.3309 225.111L72.4306 224.879C73.2442 222.985 73.3768 220.793 72.7994 218.785C72.2219 216.777 70.9816 215.118 69.3512 214.172L69.3508 214.172L67.5582 209.957L61.0828 209.379L59.7041 208.579L56.5364 215.954Z" fill="#2F2E41"/>
<path d="M189.034 225.136H0V226H189.034V225.136Z" fill="#CCCCCC"/>
<path d="M84.0254 109.503C84.0254 109.503 81.7314 141.548 81.2389 148.415C80.9012 152.719 80.0731 156.952 78.7763 161.004C78.7763 161.004 77.7912 163.293 77.7912 165.581L66.627 189.154C66.627 189.154 63.2155 192.067 63.708 194.356C64.2005 196.645 61.6511 198.018 61.6511 198.018L73.408 200.651C73.408 200.651 72.9155 198.934 74.3931 198.362C75.8707 197.79 77.0469 192.826 77.0469 192.826L93.5523 161.576L105.373 132.964C105.373 132.964 112.269 158.715 113.746 161.576C113.746 161.576 119.164 193.621 120.149 196.482C121.134 199.343 121.627 199.343 121.134 200.487C120.642 201.632 120.642 202.776 121.134 203.349C121.627 203.921 130.985 203.349 130.985 203.349L128.522 162.72L124.09 114.081L101.433 106.07L84.0254 109.503Z" fill="#2F2E41"/>
<path d="M106.208 33.0024C111.92 33.0024 116.551 27.6223 116.551 20.9856C116.551 14.3489 111.92 8.96879 106.208 8.96879C100.495 8.96879 95.8643 14.3489 95.8643 20.9856C95.8643 27.6223 100.495 33.0024 106.208 33.0024Z" fill="#A0616A"/>
<path d="M125.075 50.5636L112.762 41.8965C112.762 41.8965 112.42 36.5145 108.912 36.2613C107.151 36.1341 104.508 35.9397 100.541 35.6426C99.7029 35.5798 99.1372 40.908 98.1766 40.8357L85.1793 44.8413L87.1494 83.7528C87.1494 83.7528 84.1942 99.203 85.1793 102.064C86.1644 104.925 82.7166 106.07 83.7017 106.642C84.6867 107.214 83.7017 111.22 83.7017 111.22C83.7017 111.22 102.911 122.664 124.09 114.081L122.119 106.642C122.388 105.67 122.438 104.634 122.266 103.632C122.093 102.631 121.704 101.697 121.134 100.92C121.134 100.92 123.105 97.4863 120.642 94.6251C120.642 94.6251 121.627 89.4751 119.164 87.1862L118.672 79.175L120.149 75.1694L125.075 50.5636Z" fill="#E6E6E6"/>
<path d="M97.2324 27.8504L96.9433 27.0702C96.9061 26.9694 93.2482 16.923 96.4904 10.7262C97.9913 7.85731 100.72 6.23762 104.602 5.91244C110.675 5.40227 114.831 7.07596 116.959 10.8835C117.316 11.5288 117.516 12.2738 117.539 13.0403C117.562 13.8068 117.407 14.5664 117.091 15.2392C116.774 15.912 116.307 16.4732 115.739 16.8638C115.17 17.2544 114.522 17.4599 113.862 17.4588H113.78L112.665 15.7755L112.6 15.9392C112.196 16.9546 111.268 17.5105 110.181 17.3888C109.996 17.3734 109.833 17.5587 109.701 17.9554C109.657 18.1289 109.573 18.2854 109.459 18.4084C109.345 18.5314 109.204 18.6164 109.052 18.6545C108.249 18.8361 107.104 17.6611 106.592 17.0755C106.572 17.2102 106.528 17.3385 106.462 17.4516C106.396 17.5647 106.309 17.66 106.209 17.7311C105.669 18.093 104.829 17.6203 104.588 17.4697C102.666 17.9439 101.423 17.8171 100.89 17.0932C100.529 20.0621 99.7536 25.4061 98.824 25.7023C98.7269 25.7283 98.6251 25.7173 98.5337 25.6709C98.4424 25.6245 98.3663 25.5452 98.3167 25.4447C98.0929 25.1071 97.8928 24.9389 97.7679 24.9861C97.4655 25.0979 97.287 26.2548 97.2614 27.0016L97.2324 27.8504Z" fill="#2F2E41"/>
<path d="M119.657 51.1358L124.57 50.2084C128.109 54.1593 130.52 59.2764 131.478 64.8693C132.955 74.025 133.448 75.7416 133.448 75.7416L121.627 79.175L115.224 64.8693L119.657 51.1358Z" fill="#E6E6E6"/>
<path d="M97.8549 63.0445L94.8186 107.764L172.305 114.865L175.341 70.1459L97.8549 63.0445Z" fill="white"/>
<path d="M106.133 66.5092C104.237 64.9359 101.829 64.8222 100.91 64.8448C101.19 65.8623 102.062 68.472 103.958 70.0459C105.859 71.6232 108.264 71.7335 109.182 71.7114C108.902 70.6943 108.03 68.0835 106.133 66.5092Z" fill="#43B138"/>
<path d="M113.614 94.9651L101.172 93.8248C100.804 93.7911 100.434 93.8419 100.084 93.9742C99.7329 94.1065 99.4081 94.3178 99.1276 94.596C98.8472 94.8742 98.6166 95.2138 98.4491 95.5955C98.2816 95.9772 98.1805 96.3935 98.1515 96.8206C98.1225 97.2477 98.1662 97.6773 98.2801 98.0848C98.394 98.4923 98.5759 98.8697 98.8153 99.1956C99.0548 99.5214 99.3471 99.7893 99.6757 99.9839C100.004 100.178 100.363 100.296 100.73 100.33L113.172 101.47C113.915 101.538 114.65 101.261 115.216 100.699C115.783 100.137 116.134 99.3366 116.192 98.474C116.251 97.6114 116.012 96.7571 115.529 96.0991C115.045 95.441 114.356 95.0331 113.614 94.9651Z" fill="#43B138"/>
<path d="M172.286 65.7991L102.528 59.4053C101.716 59.3311 100.9 59.4433 100.126 59.7354C99.3522 60.0276 98.6353 60.494 98.0164 61.1081C97.3975 61.7222 96.8887 62.4719 96.5192 63.3144C96.1497 64.1569 95.9267 65.0758 95.8628 66.0184L93.18 105.503C93.051 107.407 93.5783 109.293 94.6459 110.746C95.7134 112.199 97.2339 113.099 98.8729 113.25L168.632 119.644C169.443 119.718 170.259 119.606 171.033 119.314C171.807 119.021 172.524 118.555 173.143 117.941C173.762 117.327 174.271 116.577 174.64 115.735C175.01 114.892 175.233 113.973 175.297 113.031L177.846 75.5022L177.897 74.7355L177.978 73.5424C178.042 72.5998 177.946 71.6517 177.694 70.7524C177.443 69.8531 177.041 69.0201 176.513 68.3011C175.984 67.5821 175.339 66.991 174.614 66.5617C173.889 66.1324 173.098 65.8733 172.286 65.7991ZM170.226 100.153L169.784 106.658C169.704 107.807 169.235 108.872 168.48 109.62C167.725 110.368 166.746 110.739 165.757 110.651L156.424 109.796C155.435 109.703 154.519 109.158 153.875 108.281C153.23 107.404 152.911 106.266 152.987 105.117L153.429 98.612C153.51 97.4633 153.98 96.3986 154.734 95.6504C155.489 94.9022 156.468 94.5314 157.457 94.619L166.786 95.4743C167.775 95.5686 168.692 96.1133 169.336 96.9898C169.981 97.8662 170.301 99.0032 170.226 100.153ZM97.5342 96.7608C97.6066 95.7081 98.0354 94.7319 98.7266 94.0462C99.4178 93.3604 100.315 93.0212 101.221 93.103L113.663 94.244C114.112 94.2843 114.55 94.4271 114.952 94.6643C115.354 94.9014 115.712 95.2283 116.005 95.6261C116.298 96.024 116.521 96.4851 116.661 96.983C116.8 97.4809 116.854 98.006 116.819 98.5281C116.784 99.0502 116.661 99.5592 116.456 100.026C116.252 100.493 115.97 100.908 115.627 101.248C115.285 101.589 114.888 101.847 114.459 102.009C114.03 102.171 113.578 102.233 113.129 102.192L113.123 102.194L100.681 101.053C100.232 101.011 99.7937 100.868 99.3923 100.629C98.9909 100.391 98.6338 100.064 98.3415 99.6649C98.0492 99.2663 97.8274 98.8046 97.6889 98.3062C97.5504 97.8079 97.4978 97.2827 97.5342 96.7608ZM100.198 64.587L100.113 64.1826L100.471 64.1445C100.61 64.1271 103.92 63.7819 106.496 65.9199C109.073 68.0579 109.863 71.8091 109.897 71.966L109.979 72.3713L109.622 72.4132C109.115 72.4569 108.606 72.453 108.099 72.4015C106.489 72.2919 104.933 71.6815 103.595 70.6341C101.019 68.496 100.229 64.7448 100.198 64.587Z" fill="#43B138"/>
<path d="M159.76 104.467L155.717 104.096C155.428 104.07 155.143 104.179 154.923 104.397C154.703 104.616 154.567 104.926 154.544 105.261C154.521 105.597 154.614 105.928 154.801 106.184C154.989 106.44 155.256 106.599 155.545 106.626L159.588 106.996C159.877 107.022 160.162 106.914 160.382 106.696C160.602 106.477 160.738 106.166 160.761 105.831C160.784 105.496 160.691 105.164 160.504 104.908C160.316 104.653 160.049 104.494 159.76 104.467Z" fill="#43B138"/>
<path d="M167.226 105.151L163.182 104.78C162.894 104.755 162.608 104.863 162.389 105.082C162.169 105.3 162.033 105.611 162.01 105.946C161.987 106.281 162.08 106.612 162.267 106.868C162.455 107.124 162.722 107.283 163.01 107.31L167.054 107.681C167.342 107.706 167.627 107.598 167.847 107.379C168.067 107.161 168.203 106.85 168.226 106.515C168.248 106.18 168.156 105.849 167.968 105.593C167.781 105.337 167.514 105.178 167.226 105.151Z" fill="#43B138"/>
<path d="M159.981 101.214L155.937 100.844C155.649 100.818 155.364 100.927 155.144 101.145C154.924 101.363 154.788 101.674 154.766 102.009C154.743 102.344 154.835 102.676 155.023 102.932C155.21 103.187 155.477 103.346 155.766 103.373L159.809 103.744C160.098 103.77 160.383 103.662 160.603 103.443C160.823 103.225 160.959 102.914 160.982 102.579C161.005 102.244 160.912 101.912 160.725 101.656C160.537 101.4 160.269 101.241 159.981 101.214Z" fill="#43B138"/>
<path d="M167.446 101.899L163.403 101.528C163.114 101.502 162.829 101.61 162.609 101.829C162.389 102.047 162.253 102.358 162.23 102.693C162.207 103.028 162.3 103.36 162.487 103.616C162.675 103.872 162.942 104.031 163.231 104.058L167.274 104.428C167.563 104.454 167.848 104.346 168.068 104.127C168.288 103.909 168.424 103.598 168.447 103.263C168.47 102.928 168.377 102.596 168.19 102.34C168.002 102.084 167.735 101.926 167.446 101.899Z" fill="#43B138"/>
<path d="M160.202 97.962L156.158 97.5914C155.87 97.5655 155.584 97.6737 155.364 97.8922C155.145 98.1106 155.008 98.4215 154.986 98.7566C154.963 99.0917 155.055 99.4236 155.243 99.6794C155.431 99.9352 155.698 100.094 155.986 100.121L160.03 100.492C160.318 100.517 160.604 100.409 160.823 100.19C161.043 99.972 161.179 99.6612 161.202 99.3263C161.225 98.9914 161.132 98.6597 160.945 98.4039C160.757 98.1482 160.49 97.9892 160.202 97.962Z" fill="#43B138"/>
<path d="M167.667 98.6461L163.624 98.2755C163.335 98.2499 163.05 98.3583 162.83 98.5767C162.611 98.7952 162.474 99.1059 162.452 99.4408C162.429 99.7758 162.521 100.107 162.709 100.363C162.896 100.619 163.164 100.778 163.452 100.805L167.495 101.176C167.784 101.201 168.069 101.093 168.289 100.875C168.508 100.656 168.645 100.345 168.667 100.01C168.69 99.6756 168.598 99.3438 168.41 99.0881C168.223 98.8323 167.955 98.6734 167.667 98.6461Z" fill="#43B138"/>
<path d="M94.8259 78.4769L94.7739 79.2456L176.661 86.719L176.713 85.9503L94.8259 78.4769Z" fill="white"/>
<path d="M177.897 74.7354L177.846 75.5023L174.996 75.2426L144.632 72.4716L144.687 71.7038L175.047 74.4756L177.897 74.7354Z" fill="#3F3D56"/>
<path d="M77.7913 66.586C77.7913 66.586 73.3584 88.3307 78.7763 88.3307C84.1942 88.3307 97.0002 63.7248 97.0002 63.7248L92.5673 57.4303L84.6109 70.2641L84.1942 63.7248L77.7913 66.586Z" fill="#A0616A"/>
<path d="M95.819 64.6701C98.2007 64.6701 100.131 62.427 100.131 59.6599C100.131 56.8929 98.2007 54.6498 95.819 54.6498C93.4373 54.6498 91.5066 56.8929 91.5066 59.6599C91.5066 62.427 93.4373 64.6701 95.819 64.6701Z" fill="#A0616A"/>
<path d="M88.7673 48.2747L85.812 44.8413C85.812 44.8413 79.9016 48.8469 79.4091 52.8525C78.9165 56.8581 76.4539 69.4471 76.4539 69.4471L85.5658 70.3055L88.521 65.1554L88.7673 48.2747Z" fill="#E6E6E6"/>
</g>
<defs>
<clipPath id="clip0_9_261">
<rect width="300" height="226" fill="white"/>
</clipPath>
</defs>
</svg>
